
        <svg xmlns="http://www.w3.org/2000/svg" xmlns:xlink="http://www.w3.org/1999/xlink" version="1.1" width="3178.0415430267058" 
        height="767.3590504451037" viewBox="0 -44.510385756676556 3178.0415430267058 767.3590504451037">
			
			<g transform="scale(8.90207715133531) translate(10, 10)">
				<defs id="SvgjsDefs3625"></defs><g id="SvgjsG3626" featureKey="symbolFeature-0" transform="matrix(0.6133677606895014,0,0,0.6133677606895014,-154.2306691587962,-4.992026504568139)" fill="#111111"><g xmlns="http://www.w3.org/2000/svg"><path fill="#111111" d="M290.065,35.554c-0.539,0-0.938,0.293-1.181,0.54c-0.596,0.604-0.949,1.597-0.946,2.658   c0.003,1.771,1.001,3.222,2.225,3.233l0.012,0.494l0.001-0.494c0.446,0,0.874-0.198,1.236-0.571   c0.577-0.597,0.908-1.566,0.886-2.594C292.262,37.065,291.239,35.569,290.065,35.554z"></path><path fill="#111111" d="M267.118,36.142c-1.306,0.083-2.43,1.609-2.55,3.336c-0.066,0.958,0.192,1.829,0.71,2.39   c0.336,0.365,0.75,0.558,1.197,0.558v0.486h0.001l0.067-0.488c1.229-0.057,2.302-1.538,2.389-3.299   c0.049-1.006-0.232-1.937-0.752-2.489C267.969,36.411,267.611,36.142,267.118,36.142z"></path><path fill="#111111" d="M295.887,35.608l0.044,0.49c0.001,0,0.001,0,0.001,0v-0.489c0.53,0,0.915-0.292,1.145-0.536   c0.54-0.577,0.83-1.529,0.775-2.545c-0.098-1.768-1.153-3.3-2.306-3.347c-0.001,0-0.003,0-0.004,0c-0.52,0-0.87,0.263-1.082,0.484   c-0.559,0.581-0.875,1.566-0.847,2.637C293.664,34.087,294.684,35.571,295.887,35.608z"></path><path fill="#111111" d="M284.029,29.001c-1.144,0.012-2.134,1.514-2.173,3.279c-0.023,1.051,0.307,2.036,0.886,2.636   c0.243,0.251,0.646,0.55,1.185,0.55v0.495l0.01-0.495c1.195-0.007,2.165-1.46,2.16-3.238   C286.09,30.479,285.144,29.001,284.029,29.001z"></path><path fill="#111111" d="M296.02,42.156c-0.001,0-0.001,0-0.002,0c-0.577,0-0.982,0.298-1.227,0.548   c-0.577,0.59-0.915,1.56-0.903,2.593c0.022,1.767,1.042,3.219,2.274,3.237l0.026,0.493v-0.492c0.462,0,0.901-0.203,1.271-0.585   c0.568-0.587,0.893-1.531,0.87-2.525C298.29,43.682,297.232,42.185,296.02,42.156z"></path><path fill="#111111" d="M273.248,29.36c-1.239,0.071-2.329,1.617-2.453,3.378c-0.073,0.991,0.193,1.918,0.712,2.482   c0.318,0.348,0.709,0.531,1.128,0.531v0.486h0.001l0.062-0.488c1.208-0.05,2.253-1.545,2.333-3.333   c0.046-1.054-0.246-2.021-0.781-2.586C274.046,29.617,273.708,29.36,273.248,29.36z"></path><path fill="#111111" d="M278.233,35.636c-1.224,0.033-2.277,1.543-2.338,3.296c-0.033,1.007,0.282,1.959,0.843,2.546   c0.356,0.372,0.78,0.569,1.229,0.569l-0.001,0.491v0l0.029-0.492c1.222-0.023,2.237-1.487,2.264-3.262   c0.016-1.052-0.318-2.033-0.894-2.624C279.132,35.921,278.745,35.636,278.233,35.636z"></path><path fill="#111111" d="M317.471,57.132c-0.53-1.199-1.458-2.252-2.606-3.092c3.395-7.028,3.955-14.44,0.442-23.436   c-2.729-6.988-8.545-9.589-14.231-9.996c0.029,0.002,0.059,0.001,0.088,0.003c2.921-3.171,4.714-7.394,4.714-12.047   c-4.322,0-8.283,1.537-11.37,4.092c0.014-4.584-1.726-9.172-5.223-12.669c-3.497,3.498-5.236,8.086-5.223,12.67   c-3.088-2.556-7.05-4.094-11.371-4.094c0,4.654,1.793,8.876,4.714,12.047c0.029-0.002,0.058-0.001,0.086-0.003   c-5.687,0.408-11.502,3.008-14.229,9.996c-2.435,6.231-2.915,11.702-1.855,16.812c-1.283,0.965-2.243,2.1-2.818,3.401   c-1.059,2.396-1.279,6.395,3.679,11.838c0.835,0.916,1.659,1.827,2.476,2.729c0.945,1.044,1.874,2.068,2.794,3.075   c-2.042,2.69-3.326,8.025-3.326,10.141c0,3.306,2.69,5.994,5.997,5.994s5.997-2.688,5.997-5.994c0-0.365-0.042-0.834-0.115-1.362   c4.685,4.289,9.083,7.107,13.344,7.107c3.335,0,6.754-1.729,10.328-4.534v3.574c-2.149,2.601-3.509,8.205-3.509,10.384   c0,3.307,2.689,5.996,5.995,5.996c3.307,0,5.996-2.689,5.996-5.996c0-2.188-1.373-7.834-3.539-10.421   c-0.108-1.06-0.446-5.826,1.558-9.499c2.53-2.58,5.147-5.466,7.876-8.482c0.811-0.896,1.629-1.801,2.458-2.711   C318.014,61.097,318.333,59.083,317.471,57.132z M313.382,49.798c-0.393-0.411-0.869-0.677-1.38-0.7c-0.001,0-0.005,0-0.006,0   c-0.514,0-0.932,0.189-1.28,0.547c-0.552,0.562-0.862,1.447-0.853,2.425c0,0.019,0.004,0.036,0.005,0.055   c-0.321-0.035-0.645-0.058-0.969-0.058c-1.611,0-3.852,0.421-6.116,2.103c0.449-0.584,0.71-1.371,0.701-2.234   c-0.015-1.708-1.065-3.182-2.296-3.216c0,0,0,0-0.001,0c-0.487,0-0.914,0.195-1.276,0.564c-0.573,0.582-0.912,1.531-0.906,2.539   c0.01,1.75,1.021,3.186,2.254,3.201l0.02,0.455c-0.039,0.04-0.08,0.07-0.119,0.112c-1.047,1.097-1.983,1.645-2.86,1.706   c-0.28-1.272-1.13-2.237-2.123-2.248c-0.44,0-0.848,0.186-1.194,0.496c-0.749-0.726-1.526-1.606-2.351-2.549   c-0.095-0.107-0.193-0.221-0.29-0.33c0.063-0.294,0.106-0.596,0.105-0.908c-0.007-1.733-1.039-3.206-2.256-3.215   c-0.447,0-0.872,0.194-1.235,0.546c-0.93-0.867-1.952-1.698-3.076-2.441c0.145-0.424,0.232-0.893,0.231-1.395   c-0.002-1.74-1.008-3.21-2.198-3.21c-1.046,0.006-1.953,1.123-2.187,2.56c-1.621-0.54-3.418-0.862-5.431-0.862   c-0.673,0-1.327,0.017-1.97,0.044c-0.147-0.378-0.341-0.717-0.591-0.975c-0.239-0.246-0.638-0.54-1.173-0.54   c-0.905,0.031-1.704,0.806-2.111,1.872c-2.403,0.348-4.521,0.915-6.29,1.693c-0.736-4.494-0.087-9.065,1.896-14.139   c0.293-0.751,0.633-1.426,1.002-2.05c0.082,0.017,0.166,0.028,0.253,0.028l0.105-0.004c1.123-0.088,2.196-1.555,2.411-3.243   c2.255-1.806,4.947-2.563,7.435-2.796c-0.423,0.62-0.717,1.458-0.771,2.34c-0.064,1.037,0.217,2.001,0.752,2.577   c0.216,0.232,0.576,0.509,1.071,0.509v0.489h0.001l0.044-0.489c1.146-0.038,2.153-1.557,2.2-3.318   c0.021-0.821-0.148-1.588-0.467-2.166c3.305,0.145,6.149,1.01,7.8,1.838c-0.004,0.094-0.021,0.183-0.021,0.278   c0.007,1.754,0.977,3.251,2.117,3.27l0.022,0.492v-0.492c0.499,0,0.871-0.281,1.096-0.517c0.562-0.592,0.873-1.58,0.832-2.642   c-0.012-0.307-0.059-0.601-0.121-0.886c1.718-0.666,4.124-1.25,6.838-1.347c-0.419,0.569-0.641,1.436-0.58,2.403   c0.111,1.765,1.186,3.313,2.344,3.38l0.079,0.002c0.483,0,0.822-0.265,1.021-0.487c0.492-0.549,0.727-1.476,0.629-2.477   c-0.108-1.102-0.595-2.145-1.216-2.787c2.354,0.173,4.923,0.8,7.151,2.336c-0.012,0.255-0.006,0.521,0.028,0.799   c0.221,1.777,1.37,3.322,2.564,3.444c0.047,0.005,0.095,0.007,0.141,0.007c0.314,0,0.585-0.114,0.813-0.325   c0.32,0.566,0.621,1.167,0.882,1.833C315.077,38.265,315.412,43.992,313.382,49.798z"></path><path fill="#111111" d="M300.713,35.881c-0.002,0-0.003,0-0.005,0c-0.57,0-0.939,0.276-1.16,0.508   c-0.544,0.569-0.847,1.522-0.811,2.549c0.06,1.771,1.109,3.246,2.34,3.289l0.053,0.489h0.001v-0.488   c0.443,0,0.858-0.193,1.201-0.559c0.532-0.568,0.818-1.489,0.766-2.464C303.004,37.461,301.912,35.94,300.713,35.881z"></path><path fill="#111111" d="M311.182,36.571c-0.041-0.003-0.082-0.005-0.123-0.005c-0.383,0-0.738,0.165-1.026,0.477   c-0.489,0.529-0.742,1.426-0.677,2.399c0.119,1.745,1.222,3.225,2.455,3.297l0.093,0.002c0.448,0,0.855-0.189,1.18-0.548   c0.487-0.539,0.719-1.374,0.638-2.29C313.57,38.203,312.408,36.677,311.182,36.571z"></path><path fill="#111111" d="M306.889,42.565c-0.003,0-0.005,0-0.008,0c-0.498,0-0.894,0.182-1.224,0.526   c-0.537,0.56-0.84,1.486-0.811,2.479c0.054,1.747,1.107,3.199,2.348,3.24l0.05,0.489h0.001v-0.489c0.467,0,0.904-0.201,1.265-0.583   c0.538-0.568,0.824-1.44,0.783-2.392C309.223,44.128,308.122,42.631,306.889,42.565z"></path><path fill="#111111" d="M306.606,36.125l0.093,0.003c0.413,0,0.79-0.178,1.09-0.515c0.487-0.546,0.71-1.411,0.611-2.374   c-0.179-1.743-1.328-3.302-2.512-3.405c-0.039-0.003-0.077-0.005-0.115-0.005c-0.357,0-0.677,0.151-0.949,0.448   c-0.493,0.537-0.743,1.465-0.669,2.482C304.288,34.537,305.388,36.047,306.606,36.125z"></path></g></g><g id="SvgjsG3627" featureKey="nameFeature-0" transform="matrix(1.1629176519736624,0,0,1.1629176519736624,55.88974103790487,-14.621471257427274)" fill="#111111"><path d="M24.89 13.64 c0.3516 0 0.60552 0.25367 0.60552 0.57648 c0 0.3516 -0.25398 0.6056 -0.6056 0.6056 l-0.72558 0 c-0.7808 0 -1.2744 0.6028 -1.2744 1.2456 l0 23.932 l-2.742 0 l-15.174 -20.574 l0 18.147 c0 0.6428 0.494 1.2456 1.2748 1.2456 l0.72558 0 c0.3516 0 0.6056 0.25359 0.6056 0.6052 c0 0.32281 -0.25398 0.5764 -0.6056 0.5764 l-5.414 0 c-0.3516 0 -0.6056 -0.25359 -0.6056 -0.5764 c0 -0.3516 0.25398 -0.6052 0.6056 -0.6052 l0.72558 0 c0.7808 0 1.2748 -0.6028 1.2748 -1.2456 l0 -21.505 c0 -0.6428 -0.494 -1.2456 -1.2748 -1.2456 l-0.72558 0 c-0.3516 0 -0.6056 -0.25398 -0.6056 -0.6056 c0 -0.32281 0.25398 -0.5764 0.6056 -0.5764 l5.6648 0 l14.251 19.254 l0 -16.826 c0 -0.6428 -0.4936 -1.2456 -1.2744 -1.2456 l-0.72558 0 c-0.3516 0 -0.6052 -0.25398 -0.6052 -0.6056 c0 -0.32281 0.25359 -0.5764 0.6052 -0.5764 l5.4136 0 z M54.203 38.818 c0.32281 0 0.6056 0.25359 0.6056 0.6052 c0 0.32281 -0.28281 0.5764 -0.60564 0.5764 l-11.324 0 c-0.32281 0 -0.60564 -0.25359 -0.60564 -0.5764 c0 -0.3516 0.28281 -0.6052 0.60564 -0.6052 l1.44 0 c0.8144 0 1.292 -0.6204 0.96004 -1.4 l-2.2732 -5.4428 l-9.4308 0 l-2.1912 5.4428 c-0.28 0.7316 0.16281 1.4 0.96 1.4 l1.44 0 c0.32281 0 0.60564 0.25359 0.60564 0.6052 c0 0.32281 -0.28281 0.5764 -0.60564 0.5764 l-6.6248 0 c-0.32281 0 -0.60564 -0.25359 -0.60564 -0.5764 c0 -0.3516 0.28281 -0.6052 0.60564 -0.6052 l0.96 0 c1.04 0 1.4908 -0.52 1.84 -1.4 l9.7296 -23.985 l1.6456 0 l10.029 24.025 c0.30879 0.72 0.84 1.36 1.96 1.36 l0.88 0 z M34.0504 30.822 l8.4616 0 l-4.3044 -10.324 z M87.714 13.64 l0.00082032 7.0936 c0 0.3516 -0.25359 0.6056 -0.6052 0.6056 c-0.32281 0 -0.5768 -0.25398 -0.5768 -0.6056 l0 -0.66762 c0 -2.76 -1.64 -5.244 -4.92 -5.244 l-1.1492 0 c-0.7344 0 -1.2688 0.5332 -1.2688 1.1324 l0.005586 21.719 c0 0.6052 0.5284 1.1444 1.2684 1.1444 l0.72558 0 c0.3516 0 0.6056 0.25359 0.6056 0.5764 c0 0.3516 -0.25398 0.6052 -0.6056 0.6052 l-9.6136 0 c-0.3516 0 -0.6056 -0.25359 -0.6056 -0.6052 c0 -0.32281 0.25398 -0.5764 0.6056 -0.5764 l0.72558 0 c0.7344 0 1.2688 -0.5244 1.2688 -1.1324 l-0.0060156 -21.719 c0 -0.6108 -0.5284 -1.144 -1.2684 -1.144 l-0.92281 0 c-3.3904 0 -5.1408 2.3736 -5.1408 5.4648 l0 0.4468 c0 0.3516 -0.25398 0.6056 -0.6056 0.6056 c-0.32281 0 -0.5768 -0.25398 -0.5768 -0.6056 l0 -7.094 l22.659 0 z M116.12300000000002 38.818 c0.32281 0 0.6056 0.25359 0.6056 0.6052 c0 0.32281 -0.28281 0.5764 -0.60564 0.5764 l-11.324 0 c-0.32281 0 -0.60564 -0.25359 -0.60564 -0.5764 c0 -0.3516 0.28281 -0.6052 0.60564 -0.6052 l1.44 0 c0.8144 0 1.292 -0.6204 0.96004 -1.4 l-2.2732 -5.4428 l-9.4308 0 l-2.1912 5.4428 c-0.28 0.7316 0.16281 1.4 0.96 1.4 l1.44 0 c0.32281 0 0.60564 0.25359 0.60564 0.6052 c0 0.32281 -0.28281 0.5764 -0.60564 0.5764 l-6.6248 0 c-0.32281 0 -0.60564 -0.25359 -0.60564 -0.5764 c0 -0.3516 0.28281 -0.6052 0.60564 -0.6052 l0.96 0 c1.04 0 1.4908 -0.52 1.84 -1.4 l9.7296 -23.985 l1.6456 0 l10.029 24.025 c0.30879 0.72 0.84 1.36 1.96 1.36 l0.88 0 z M95.97040000000001 30.822 l8.4616 0 l-4.3044 -10.324 z M137.55700000000002 32.4112 c0.32281 0 0.57596 0.25316 0.57596 0.60476 l0 6.9836 l-19.728 0 c-0.3516 0 -0.6052 -0.25359 -0.6052 -0.6052 c0 -0.32281 0.25359 -0.5764 0.6052 -0.5764 l0.72558 0 c0.7344 0 1.2688 -0.5244 1.2688 -1.1324 l-0.005586 -21.719 c0 -0.6108 -0.5284 -1.144 -1.2684 -1.144 l-0.72558 0 c-0.3516 0 -0.6056 -0.25398 -0.6056 -0.5768 c0 -0.3516 0.25398 -0.6052 0.6056 -0.6052 l9.6136 0 c0.3516 0 0.6056 0.25359 0.6056 0.6052 c0 0.32281 -0.25398 0.5768 -0.6056 0.5768 l-0.72558 0 c-0.7344 0 -1.2688 0.5332 -1.2688 1.1324 l0.0060156 21.719 c0 0.6052 0.5284 1.1444 1.2684 1.1444 l4.738 0 c3.1932 0 4.92 -2.734 4.92 -5.2624 l0 -0.53922 c0 -0.3516 0.25398 -0.6056 0.6056 -0.6056 z M159.603 32.3008 l0.005586 -0.0003125 c0.32281 0 0.5764 0.25398 0.5764 0.6056 l0 7.094 l-20.214 0 c-0.3516 0 -0.6052 -0.25359 -0.6052 -0.6052 c0 -0.32281 0.25359 -0.5764 0.6052 -0.5764 l0.72558 0 c0.7344 0 1.2688 -0.5332 1.2688 -1.1324 l-0.005586 -21.719 c0 -0.6052 -0.5284 -1.1444 -1.2684 -1.1444 l-0.72558 0 c-0.3516 0 -0.6056 -0.25398 -0.6056 -0.5768 c0 -0.3516 0.25398 -0.6052 0.6056 -0.6052 l20.164 0 l0 7.094 c0 0.3516 -0.25359 0.6056 -0.6052 0.6056 c-0.32281 0 -0.5764 -0.25398 -0.5764 -0.6056 l0 -0.66762 c0 -2.76 -1.64 -5.244 -4.92 -5.244 l-5.174 0 c-0.7344 0 -1.2688 0.5244 -1.2688 1.1324 l0 9.7088 l1.4152 0 c3.0124 0 4.0772 -1.0732 4.0772 -3.5712 l0 -0.17922 c0 -0.32281 0.28281 -0.60564 0.60564 -0.60564 s0.60564 0.28281 0.60564 0.60564 l0 8.7408 c0 0.32281 -0.28281 0.60564 -0.60564 0.60564 s-0.60564 -0.25398 -0.60564 -0.69276 l0 -0.19039 c0 -2.342 -1.0068 -3.4732 -4.0772 -3.4732 l-1.4152 0 l0 10.77 c0 0.6108 0.5284 1.144 1.2684 1.144 l5.2236 0 c3.28 0 4.92 -2.484 4.92 -5.244 l0 -0.66762 c0 -0.3516 0.25359 -0.6056 0.6052 -0.6056 z M189.531 38.1392 l0.0032031 -0.00085936 c0.29359 0 0.4604 0.2248 0.4604 0.4896 c0 0.8676 -1.7312 1.7596 -3.804 1.7596 c-10.111 0 -2.0044 -12.537 -12.194 -12.537 l-1.5308 0 l0 9.8228 c0 0.6052 0.5284 1.1444 1.2684 1.1444 l0.72558 0 c0.3516 0 0.6056 0.25359 0.6056 0.5764 c0 0.3516 -0.25398 0.6052 -0.6056 0.6052 l-9.6136 0 c-0.3516 0 -0.6052 -0.25359 -0.6052 -0.6052 c0 -0.32281 0.25359 -0.5764 0.6052 -0.5764 l0.72558 0 c0.7344 0 1.2688 -0.5244 1.2688 -1.1324 l-0.005586 -21.719 c0 -0.6108 -0.5284 -1.144 -1.2684 -1.144 l-0.72558 0 c-0.3516 0 -0.6056 -0.25398 -0.6056 -0.5768 c0 -0.3516 0.25398 -0.6052 0.6056 -0.6052 l11.684 0 c6.3572 0 9.7944 2.3944 9.7944 6.6344 c0 3.4896 -2.7308 5.968 -7.348 6.8032 c9.7408 1.74 4.9984 11.725 8.6936 11.725 c1.0304 0 1.3144 -0.6636 1.866 -0.6636 z M172.4656 26.639 l2.4164 0 c4.302 0 5.4828 -3.2056 5.4828 -6.1916 c0 -3.0648 -1.6152 -5.626 -5.8964 -5.626 l-0.73398 0 c-0.7344 0 -1.2688 0.5332 -1.2688 1.1324 l0 10.685 z M212.066 32.3008 c0.32281 0 0.5772 0.25398 0.5772 0.6056 l0 7.094 l-20.892 0 l0 -1.5296 l14.112 -23.648 l-7.1712 0 c-3.3904 0 -5.1408 2.3736 -5.1408 5.4648 l0 0.4468 c0 0.3516 -0.25398 0.6056 -0.6056 0.6056 c-0.32281 0 -0.5768 -0.25398 -0.5768 -0.6056 l0 -7.094 l20.104 0 l0 1.182 l-14.354 23.996 l8.4236 0 c3.28 0 4.92 -2.484 4.92 -5.244 l0 -0.66762 c0 -0.3516 0.25359 -0.6056 0.6052 -0.6056 z M241.121 13.64 l0.0022266 -0.00042968 c0.3516 0 0.6052 0.25359 0.6052 0.5764 c0 0.3516 -0.25359 0.6056 -0.6052 0.6056 l-0.72558 0 c-0.7808 0 -1.2748 0.6028 -1.2748 1.2456 l0 14.113 c0 7.3988 -4.3848 10.222 -10.108 10.222 c-5.356 0 -10.774 -2.6456 -10.774 -10.266 l0 -14.069 c0 -0.6428 -0.494 -1.2456 -1.2748 -1.2456 l-0.72558 0 c-0.3516 0 -0.6056 -0.25398 -0.6056 -0.5768 c0 -0.3516 0.25398 -0.6052 0.6056 -0.6052 l9.6192 0 c0.3516 0 0.6056 0.25359 0.6056 0.6052 c0 0.32281 -0.25398 0.5768 -0.6056 0.5768 l-0.72558 0 c-0.7808 0 -1.2748 0.6028 -1.2748 1.2456 l0 14.553 c0 5.6332 2.7764 7.9476 6.67 7.9476 c4.0152 0 7.178 -2.418 7.178 -8.0692 l0 -14.432 c0 -0.6428 -0.494 -1.2456 -1.2748 -1.2456 l-0.72558 0 c-0.3516 0 -0.6052 -0.25398 -0.6052 -0.6056 c0 -0.32281 0.25359 -0.5764 0.6052 -0.5764 l5.4136 0 z"></path></g><g id="SvgjsG3628" featureKey="sloganFeature-0" transform="matrix(0.46649629818594524,0,0,0.46649629818594524,56.253605744948274,40.53689989258893)" fill="#111111"><path d="M6.93 9.99 c2.84 0 4.49 2.23 4.49 5.13 s-1.69 5.13 -4.49 5.13 c-1.45 0 -2.52 -0.61 -3.24 -1.5 l-0.08 0.95 c-0.02 0.18 -0.12 0.3 -0.3 0.3 l-1.41 0 c-0.18 0 -0.3 -0.12 -0.3 -0.3 l0 -13.4 c0 -0.18 0.12 -0.3 0.3 -0.3 l1.56 0 c0.18 0 0.3 0.12 0.3 0.3 l0 5.34 l0.2 0 c0.54 -0.91 1.47 -1.65 2.97 -1.65 z M6.5 18.27 c1.87 0 2.83 -1.29 2.83 -3.17 s-0.96 -3.13 -2.83 -3.13 c-1.7 0 -2.76 1.25 -2.76 3.13 s1.06 3.17 2.76 3.17 z M52.51 10.2 c0.22 0 0.33 0.12 0.24 0.34 l-5.4 13.02 c-0.06 0.16 -0.2 0.24 -0.36 0.24 l-1.56 0 c-0.22 0 -0.33 -0.12 -0.24 -0.34 l1.43 -3.44 l-3.97 -9.48 c-0.09 -0.22 0.02 -0.34 0.24 -0.34 l1.56 0 c0.16 0 0.3 0.08 0.36 0.24 l2.89 7.13 l2.88 -7.13 c0.07 -0.16 0.2 -0.24 0.36 -0.24 l1.57 0 z M130.32 10.2 c0.18 0 0.3 0.12 0.3 0.3 l0 1.19 c0 0.18 -0.12 0.3 -0.3 0.3 l-4.79 0 l0 7.71 c0 0.18 -0.12 0.3 -0.3 0.3 l-1.56 0 c-0.18 0 -0.3 -0.12 -0.3 -0.3 l0 -7.71 l-2.55 0 c-0.18 0 -0.3 -0.12 -0.3 -0.3 l0 -1.19 c0 -0.18 0.12 -0.3 0.3 -0.3 l2.55 0 l0 -0.98 c0 -3.12 2.08 -3.94 4.39 -3.94 c1.17 0 2.76 0.22 2.76 0.65 l0 1.13 c0 0.2 -0.14 0.32 -0.36 0.28 c-0.24 -0.04 -0.78 -0.23 -1.91 -0.23 c-1.46 0 -2.72 0.43 -2.72 2.31 l0 0.78 l4.79 0 z M171.72000000000003 18.21 c0.25 0.06 0.36 0.14 0.36 0.35 l0 1.19 c0 0.23 -0.22 0.32 -0.57 0.33 c-1.45 0.03 -2.13 -0.5 -2.13 -1.64 l-0.09 0 c-1.02 1.16 -2.74 1.8 -4.15 1.8 c-2.19 0 -3.33 -1.09 -3.33 -2.79 c0 -1.77 1.13 -2.67 3.36 -3 l2.33 -0.36 c0.83 -0.13 1.27 -0.24 1.39 -0.47 c-0.05 -1.36 -0.83 -1.8 -2.12 -1.8 c-1.27 0 -2.19 0.34 -2.34 1.35 c-0.02 0.14 -0.11 0.22 -0.29 0.22 l-1.49 0 c-0.18 0 -0.31 -0.1 -0.29 -0.3 c0.24 -2.33 1.98 -3.11 4.43 -3.11 c2.84 0 4.2 1.33 4.2 3.74 l0 3.67 c0 0.44 0.23 0.72 0.73 0.82 z M165.55 18.39 c1.11 0 2.28 -0.25 3.34 -1.31 l0 -2.01 c-0.11 0.23 -0.5 0.34 -1.25 0.46 l-2.1 0.33 c-1.18 0.19 -1.57 0.66 -1.57 1.32 c0 0.73 0.48 1.21 1.58 1.21 z M212.43 10.2 c0.18 0 0.3 0.12 0.3 0.3 l0 9.2 c0 0.18 -0.12 0.3 -0.3 0.3 l-1.48 0 c-0.18 0 -0.28 -0.12 -0.3 -0.3 l-0.08 -1.33 l-0.2 0 c-0.61 0.95 -1.67 1.85 -3.27 1.85 c-2.1 0 -3.58 -1.42 -3.58 -4.04 l0 -5.68 c0 -0.18 0.12 -0.3 0.3 -0.3 l1.56 0 c0.18 0 0.3 0.12 0.3 0.3 l0 5.36 c0 1.67 0.88 2.38 2.29 2.38 c1.76 0 2.6 -1.65 2.6 -2.09 l0 -5.65 c0 -0.18 0.12 -0.3 0.3 -0.3 l1.56 0 z M248.95000000000002 14.3 c2.11 0.27 4.56 0.53 4.56 2.94 c0 1.79 -1.48 3.02 -4.51 3.02 c-2.62 0 -4.39 -0.77 -4.62 -3.1 c-0.02 -0.2 0.11 -0.3 0.29 -0.3 l1.49 0 c0.18 0 0.27 0.08 0.29 0.22 c0.15 1.01 1.09 1.38 2.51 1.38 c1.54 0 2.43 -0.4 2.43 -1.26 c0 -0.91 -1.04 -1.13 -2.44 -1.3 c-2.08 -0.27 -4.38 -0.55 -4.38 -2.92 c0 -1.77 1.38 -3 4.23 -3 c2.48 0 4.27 0.76 4.5 3.09 c0.02 0.2 -0.11 0.3 -0.29 0.3 l-1.49 0 c-0.18 0 -0.27 -0.08 -0.29 -0.22 c-0.15 -1.01 -1.11 -1.38 -2.4 -1.38 c-1.33 0 -2.15 0.38 -2.15 1.25 s0.88 1.1 2.27 1.28 z M294.59000000000003 18.35 c0.11 0.13 0.13 0.28 0.02 0.41 c-0.42 0.52 -1.51 1.4 -3.3 1.4 c-2.05 0 -3.98 -0.76 -3.98 -3.97 l0 -4.18 l-2.48 0 c-0.18 0 -0.3 -0.12 -0.3 -0.3 l0 -1.21 c0 -0.18 0.12 -0.3 0.3 -0.3 l2.48 0 l0 -2.6 c0 -0.18 0.12 -0.3 0.3 -0.3 l1.56 0 c0.18 0 0.3 0.12 0.3 0.3 l0 2.6 l3.95 0 c0.18 0 0.3 0.12 0.3 0.3 l0 1.21 c0 0.18 -0.12 0.3 -0.3 0.3 l-3.95 0 l0 3.95 c0 1.87 1.08 2.26 2.19 2.26 c0.83 0 1.43 -0.36 1.82 -0.67 c0.14 -0.13 0.3 -0.12 0.42 0.02 z M335.53 10.2 c0.22 0 0.33 0.12 0.24 0.34 l-5.4 13.02 c-0.06 0.16 -0.2 0.24 -0.36 0.24 l-1.56 0 c-0.22 0 -0.33 -0.12 -0.24 -0.34 l1.43 -3.44 l-3.97 -9.48 c-0.09 -0.22 0.02 -0.34 0.24 -0.34 l1.56 0 c0.16 0 0.3 0.08 0.36 0.24 l2.89 7.13 l2.88 -7.13 c0.07 -0.16 0.2 -0.24 0.36 -0.24 l1.57 0 z M373.02 9.98 c2.09 0 3.54 1.42 3.54 4.04 l0 5.68 c0 0.18 -0.12 0.3 -0.3 0.3 l-1.56 0 c-0.18 0 -0.3 -0.12 -0.3 -0.3 l0 -5.36 c0 -1.67 -0.86 -2.37 -2.17 -2.37 c-1.9 0 -2.72 1.64 -2.72 2.08 l0 5.65 c0 0.18 -0.12 0.3 -0.3 0.3 l-1.56 0 c-0.18 0 -0.3 -0.12 -0.3 -0.3 l0 -9.2 c0 -0.18 0.12 -0.3 0.3 -0.3 l1.48 0 c0.18 0 0.28 0.12 0.3 0.3 l0.08 1.32 l0.21 0 c0.58 -0.94 1.65 -1.84 3.3 -1.84 z M418.21000000000004 18.21 c0.25 0.06 0.36 0.14 0.36 0.35 l0 1.19 c0 0.23 -0.22 0.32 -0.57 0.33 c-1.45 0.03 -2.13 -0.5 -2.13 -1.64 l-0.09 0 c-1.02 1.16 -2.74 1.8 -4.15 1.8 c-2.19 0 -3.33 -1.09 -3.33 -2.79 c0 -1.77 1.13 -2.67 3.36 -3 l2.33 -0.36 c0.83 -0.13 1.27 -0.24 1.39 -0.47 c-0.05 -1.36 -0.83 -1.8 -2.12 -1.8 c-1.27 0 -2.19 0.34 -2.34 1.35 c-0.02 0.14 -0.11 0.22 -0.29 0.22 l-1.49 0 c-0.18 0 -0.31 -0.1 -0.29 -0.3 c0.24 -2.33 1.98 -3.11 4.43 -3.11 c2.84 0 4.2 1.33 4.2 3.74 l0 3.67 c0 0.44 0.23 0.72 0.73 0.82 z M412.04 18.39 c1.11 0 2.28 -0.25 3.34 -1.31 l0 -2.01 c-0.11 0.23 -0.5 0.34 -1.25 0.46 l-2.1 0.33 c-1.18 0.19 -1.57 0.66 -1.57 1.32 c0 0.73 0.48 1.21 1.58 1.21 z M450.41 20 c-0.18 0 -0.3 -0.12 -0.3 -0.3 l0 -9.2 c0 -0.18 0.12 -0.3 0.3 -0.3 l1.33 0 c0.18 0 0.29 0.12 0.3 0.3 l0.05 0.8 l0.15 0 c0.38 -0.87 1.17 -1.32 2.18 -1.32 c0.96 0 1.68 0.41 2.06 1.32 l0.12 0 c0.43 -0.88 1.24 -1.32 2.23 -1.32 c1.59 0 2.55 0.91 2.55 3.48 l0 6.24 c0 0.18 -0.12 0.3 -0.3 0.3 l-1.41 0 c-0.18 0 -0.3 -0.12 -0.3 -0.3 l0 -6.24 c0 -1.22 -0.41 -1.62 -1.18 -1.62 c-0.96 0 -1.37 0.72 -1.46 1.32 l0 6.54 c0 0.18 -0.12 0.3 -0.3 0.3 l-1.37 0 c-0.18 0 -0.3 -0.12 -0.3 -0.3 l0 -6.24 c0 -1.22 -0.41 -1.62 -1.2 -1.62 c-0.93 0 -1.35 0.72 -1.44 1.32 l0 6.54 c0 0.18 -0.12 0.3 -0.3 0.3 l-1.41 0 z M498.0200000000001 8.13 c-0.7 0 -1.25 -0.55 -1.25 -1.24 c0 -0.7 0.55 -1.25 1.25 -1.25 c0.69 0 1.24 0.55 1.24 1.25 c0 0.69 -0.55 1.24 -1.24 1.24 z M502.0800000000001 18.19 c0.18 0 0.3 0.12 0.3 0.3 l0 1.21 c0 0.18 -0.12 0.3 -0.3 0.3 l-8.61 0 c-0.18 0 -0.3 -0.12 -0.3 -0.3 l0 -1.21 c0 -0.18 0.12 -0.3 0.3 -0.3 l3.49 0 l0 -6.18 l-2.99 0 c-0.18 0 -0.3 -0.12 -0.3 -0.3 l0 -1.21 c0 -0.18 0.12 -0.3 0.3 -0.3 l4.85 0 c0.18 0 0.3 0.12 0.3 0.3 l0 7.69 l2.96 0 z M543.4300000000001 19.64 c0.16 0.2 0.06 0.36 -0.18 0.36 l-1.79 0 c-0.16 0 -0.25 -0.04 -0.36 -0.18 l-3.26 -3.96 l-1.61 1.71 l0 2.13 c0 0.18 -0.12 0.3 -0.3 0.3 l-1.56 0 c-0.18 0 -0.3 -0.12 -0.3 -0.3 l0 -14 c0 -0.18 0.12 -0.3 0.3 -0.3 l1.56 0 c0.18 0 0.3 0.12 0.3 0.3 l0 9.19 l4.2 -4.53 c0.11 -0.12 0.23 -0.16 0.37 -0.16 l1.9 0 c0.26 0 0.35 0.17 0.16 0.36 l-3.67 3.88 z M584.3100000000001 18.21 c0.25 0.06 0.36 0.14 0.36 0.35 l0 1.19 c0 0.23 -0.22 0.32 -0.57 0.33 c-1.45 0.03 -2.13 -0.5 -2.13 -1.64 l-0.09 0 c-1.02 1.16 -2.74 1.8 -4.15 1.8 c-2.19 0 -3.33 -1.09 -3.33 -2.79 c0 -1.77 1.13 -2.67 3.36 -3 l2.33 -0.36 c0.83 -0.13 1.27 -0.24 1.39 -0.47 c-0.05 -1.36 -0.83 -1.8 -2.12 -1.8 c-1.27 0 -2.19 0.34 -2.34 1.35 c-0.02 0.14 -0.11 0.22 -0.29 0.22 l-1.49 0 c-0.18 0 -0.31 -0.1 -0.29 -0.3 c0.24 -2.33 1.98 -3.11 4.43 -3.11 c2.84 0 4.2 1.33 4.2 3.74 l0 3.67 c0 0.44 0.23 0.72 0.73 0.82 z M578.1400000000001 18.39 c1.11 0 2.28 -0.25 3.34 -1.31 l0 -2.01 c-0.11 0.23 -0.5 0.34 -1.25 0.46 l-2.1 0.33 c-1.18 0.19 -1.57 0.66 -1.57 1.32 c0 0.73 0.48 1.21 1.58 1.21 z"></path></g>
			</g>
		</svg>
	