
        <svg xmlns="http://www.w3.org/2000/svg" xmlns:xlink="http://www.w3.org/1999/xlink" version="1.1" width="3198.3960949958373" 
        height="3148.151906413419" viewBox="0 0 3198.3960949958373 3148.151906413419">
			
			<g transform="scale(9.919804749791854) translate(10, 10)">
				<defs id="SvgjsDefs2932"><linearGradient id="SvgjsLinearGradient2939"><stop id="SvgjsStop2940" stop-color="#006838" offset="0"></stop><stop id="SvgjsStop2941" stop-color="#96cf24" offset="1"></stop></linearGradient></defs><g id="SvgjsG2933" featureKey="symbolFeature-0" transform="matrix(2.2084951312711736,0,0,2.2084951312711736,79.21196853526725,-27.149029031166393)" fill="url(#SvgjsLinearGradient2939)"><path xmlns="http://www.w3.org/2000/svg" d="M14.142,29.217l.168,0c.124-.289.249-.564.379-.819a13.455,13.455,0,0,1,1.7-2.6l-1.8-1.8H10V22h2.586L9.293,18.707l1.414-1.414L14,20.586V18h2v4.586l1.776,1.776a13.242,13.242,0,0,1,3.454-2.227A9.959,9.959,0,0,0,12,16H8v4A9.928,9.928,0,0,0,14.142,29.217Z"></path><path xmlns="http://www.w3.org/2000/svg" d="M16.475,29.3c-.024.048-.047.1-.072.152,2.532.593,5.036,2.3,7.391,5.093a29.677,29.677,0,0,1,5.86,11.4A12.8,12.8,0,0,1,29.9,50.49l18.506-3.777a7.382,7.382,0,0,1,5.467,1.013l.962-2.145A24.679,24.679,0,0,0,57,35.53,13.947,13.947,0,0,0,55.526,29.3a11.333,11.333,0,0,0-4.193-4.6,11.407,11.407,0,0,0-13.1.792L37,26.48V25.071a15.966,15.966,0,0,1,4.707-11.364l-1.414-1.414A17.951,17.951,0,0,0,35,25.071V26.48l-1.235-.99A11.429,11.429,0,0,0,26.66,23,11.307,11.307,0,0,0,16.475,29.3Z"></path><path xmlns="http://www.w3.org/2000/svg" d="M35.425,19.929a8.018,8.018,0,0,0-6.858-6.858A8.019,8.019,0,0,0,35.425,19.929Z"></path><path xmlns="http://www.w3.org/2000/svg" d="M15.4,42.094A7,7,0,0,0,10.184,50.5a6.853,6.853,0,0,0,2.13,3.577l11.042-2.253A6.991,6.991,0,0,0,15.4,42.094Z"></path><path xmlns="http://www.w3.org/2000/svg" d="M7.847,54.991,10,54.552a9,9,0,1,1,15.767-7.7,9.079,9.079,0,0,1-.115,4.506l2.142-.437a10.809,10.809,0,0,0-.084-4.522A27.478,27.478,0,0,0,22.266,35.83c-2.138-2.53-5.5-5.356-9.368-4.446s-5.631,4.928-6.425,8.144a27.43,27.43,0,0,0-.189,11.884A10.859,10.859,0,0,0,7.847,54.991Z"></path><path xmlns="http://www.w3.org/2000/svg" d="M61.049,52.979l-.412-1.958-2.3.485,1.332-1.941-1.65-1.13-2.744,4a.958.958,0,0,0-.118.256A5.39,5.39,0,0,0,49.9,48.562a5.484,5.484,0,0,0-1.093.11l-.1.021a9.906,9.906,0,0,1-.249,3.619l-.1.382-1.934-.507.1-.381a7.928,7.928,0,0,0,.22-2.712l-5.751,1.173a9.806,9.806,0,0,1-.48,4.489l-1.884-.672a7.825,7.825,0,0,0,.407-3.417l-4.881,1a9.863,9.863,0,0,1-.532,3.953l-1.884-.672a7.845,7.845,0,0,0,.444-2.879l-4.891,1a9.83,9.83,0,0,1-.559,3.414L24.848,55.8a7.787,7.787,0,0,0,.437-2.33l-4.889,1a9.655,9.655,0,0,1-.555,2.867l-1.883-.674a7.676,7.676,0,0,0,.4-1.776L4.962,57.62A1.2,1.2,0,0,0,5.2,60H49.333a5.4,5.4,0,0,0,3.846-1.593l.561-.562A5.4,5.4,0,0,0,55.333,54c0-.148-.03-.289-.042-.434a.962.962,0,0,0,.078.118l3.744,4,1.46-1.368-2.531-2.7Z"></path></g><g id="SvgjsG2934" featureKey="nameFeature-0" transform="matrix(3.827780297349383,0,0,3.827780297349383,0.0000018252278792139926,90.8562031060628)" fill="#181919"><path d="M9.92 17.88 c2.72 -2.44 5.44 -4 9.16 -4 c1.72 0.12 2.84 1.2 2.84 2.96 c0 0.28 -0.04 1.16 -0.48 1.16 c-0.72 0 -0.6 -1.52 -0.96 -1.92 c-0.48 -0.52 -1.24 -0.64 -1.92 -0.64 c-1.72 0 -3.28 1.72 -4.24 2.88 c-0.16 0.16 -0.76 0.92 -0.88 1.08 c-0.24 0.32 -1.04 1.44 -1.12 1.56 l-1.92 3 l-1.72 3.12 l-1.16 2.48 l-1 2.48 c-0.04 0.16 -0.44 1.36 -0.56 1.76 c-0.56 1.8 -0.92 3.72 -0.92 5.64 c0 1.32 0.24 3.2 1.92 3.2 s3.32 -1.56 4.48 -2.72 l1.44 -1.48 l1.84 -2.16 l4.84 -6.36 c0.08 -0.12 0.36 -0.12 0.48 -0.12 c0.32 0 0.44 0.2 0.44 0.48 c0 0.16 0 0.24 -0.08 0.36 l-4.08 5.48 l-2.48 2.92 l-1.64 1.72 c-0.08 0.08 -0.64 0.56 -0.76 0.68 c-1.16 1.04 -2.64 2.24 -4.28 2.4 c-4.24 0 -7.16 -1.76 -7.16 -6.36 c0 -1.4 0.24 -2.8 0.72 -4.12 l0.8 -2.32 l1.12 -2.64 l1.12 -2.28 l1.36 -2.32 l1.4 -2.08 c0.92 -1.4 2.16 -2.68 3.4 -3.84 z M26.251999999999995 20 c0 -1.4 1.52 -3 2.96 -3 c1 0 1.56 0.76 1.56 1.76 c0 1.4 -1.32 2.96 -2.8 2.96 c-0.96 0 -1.72 -0.72 -1.72 -1.72 z M21.491999999999997 31.4 c0 -1.24 0.44 -2.48 0.88 -3.64 c0.04 -0.12 0.24 -0.68 0.28 -0.72 l2 -4.32 c0.16 -0.36 0.4 -0.6 0.76 -0.6 c0.32 0 0.6 0.12 0.88 0.2 c0.68 0.24 1.68 0.64 1.68 1.52 c0 0.12 0 0.28 -0.08 0.36 c-0.56 0.92 -1.12 2.08 -1.6 3.08 c-0.08 0.2 -0.52 1.24 -0.6 1.48 c-0.28 0.72 -0.56 1.56 -0.56 2.32 c0 0.28 0.04 0.48 0.36 0.48 c0.64 0 1.32 -0.44 1.84 -0.72 c0.12 -0.08 0.56 -0.32 0.6 -0.36 c0.32 -0.24 1.28 -0.88 1.36 -0.96 l1.6 -1.2 l0.36 -0.36 l1.6 -1.76 l1.68 -2.12 c0.08 -0.08 0.24 -0.28 0.36 -0.32 c0.24 0 0.72 0.04 0.72 0.36 l0 0.28 l-0.92 1.24 l-1.36 1.68 l-1.6 1.72 c-0.12 0.12 -1 0.96 -1.28 1.2 c-1.64 1.64 -4.4 3.48 -6.76 3.48 c-1.44 0 -2.2 -0.92 -2.2 -2.32 z M32.903999999999996 31.8 c0 -1.8 1.04 -3.72 1.96 -5.2 c1.48 -2.32 4.48 -6.04 7.6 -6.04 c1.48 0 2.08 1.08 2.08 2.48 c0 1.8 -0.96 3.64 -1.8 5.2 c0.4 0 0.8 -0.12 1.16 -0.28 c1.84 -0.68 3.36 -2.16 4.44 -3.72 l0.04 -0.04 c0.48 0 0.64 0.08 0.8 0.6 c-0.08 0.16 -0.4 0.56 -0.4 0.6 c-0.04 0.04 -0.28 0.36 -0.36 0.44 c-1.56 1.84 -3.92 3.52 -6.4 3.52 l0 0.04 c-1.2 1.6 -4.16 5.28 -6.36 5.28 c-1.76 0 -2.76 -1.12 -2.76 -2.88 z M40.224 25.8 c0 0.76 0.12 1.76 0.84 2.24 c0.12 0.04 0.28 0.16 0.44 0.16 c0.92 -1.36 2 -3.52 2 -5.2 c0 -0.72 -0.28 -1.4 -1.08 -1.4 c-1.12 0 -1.88 1.84 -2.04 2.72 c-0.12 0.48 -0.16 0.96 -0.16 1.48 z M36.38399999999999 32 c0 0.32 0.08 0.64 0.44 0.64 c0.8 0 1.6 -0.72 2.08 -1.24 c0.12 -0.08 0.56 -0.52 0.64 -0.64 c0.12 -0.16 0.8 -0.96 0.96 -1.12 c0.04 -0.08 0.32 -0.44 0.36 -0.48 c0 -0.04 -0.52 -0.28 -0.6 -0.32 c-0.88 -0.56 -1.32 -1.48 -1.52 -2.52 l0 0.04 c-0.04 0 -0.32 0.48 -0.44 0.68 c-0.68 1.16 -1.92 3.56 -1.92 4.96 z M50.995999999999995 16.64 l1.24 -1.88 l1.04 -1.4 c0.08 -0.08 0.52 -0.6 0.64 -0.72 c1.92 -2.08 4 -3.72 6.96 -3.72 c1.2 0.16 1.68 1.24 1.68 2.32 c0 0.44 -0.04 0.84 -0.2 1.24 c-0.72 2.32 -2.08 4.24 -3.68 6 c-0.24 0.24 -1.08 1.04 -1.16 1.16 l-2.84 2.64 l-3.32 2.68 s-0.04 0.04 -0.04 0.08 l-0.72 2.76 c-0.24 0.88 -0.32 1.8 -0.32 2.72 c0 1.84 0.56 4.44 2.88 4.44 c1.88 0 3.4 -2 4.2 -3.48 c0.08 -0.08 0.2 -0.36 0.2 -0.36 l0 -0.04 c-0.32 0 -0.64 0.08 -1 0.08 c-1.84 0 -3.76 -1.28 -3.76 -3.28 s1.92 -3.96 3.92 -3.96 c1.92 0 3 1.36 3 3.2 c0 0.76 -0.2 1.48 -0.4 2.24 l0 0.04 l0.04 0 s0.28 -0.16 0.4 -0.24 c1.16 -0.64 2.24 -1.52 3.12 -2.48 c0.24 -0.24 0.92 -0.96 0.96 -1.04 l1.2 -1.48 c0 -0.08 0.04 -0.2 0.04 -0.24 l0.44 0 c0.28 0 0.4 0.28 0.48 0.56 c-0.08 0.16 -0.52 0.72 -0.64 0.84 c-0.28 0.36 -1.16 1.4 -1.24 1.48 l-1.32 1.32 c-1.04 1.04 -2.52 2.04 -3.92 2.6 c-0.2 0.32 -0.36 0.76 -0.56 1.12 c-0.04 0.04 -0.24 0.4 -0.28 0.48 c-1.32 2.2 -3.52 4.48 -6.28 4.48 c-2.28 0 -4.44 -1.36 -5.24 -3.52 c-0.32 -0.96 -0.44 -1.88 -0.44 -2.84 c0 -1.72 0.36 -3.48 0.88 -5.08 l0.72 -2.12 l0.88 -2.08 l1.24 -2.44 z M52.59599999999999 21.2 l0.04 0 l3 -2.08 l1.6 -1.24 c0.08 -0.08 0.72 -0.64 0.92 -0.84 c1.48 -1.36 3.2 -3.36 3.2 -5.48 c0 -0.36 -0.08 -0.68 -0.48 -0.68 c-0.96 0 -4.24 2.84 -4.24 3.12 l-1.28 1.72 c-1.24 1.64 -2.12 3.56 -2.76 5.48 z M54.715999999999994 28.119999999999997 c0 1.24 0.96 2 2.12 2 c0.24 0 1.12 -0.08 1.24 -0.24 c0.32 -0.92 0.64 -1.92 0.64 -2.92 c0 -1.08 -0.52 -1.56 -1.6 -1.56 c-1.4 0 -2.4 1.4 -2.4 2.72 z M59.315999999999995 29.439999999999998 l0 -0.04 l0 0.04 z M62.727999999999994 31.8 c0 -1.8 1.04 -3.72 1.96 -5.2 c1.48 -2.32 4.48 -6.04 7.6 -6.04 c1.48 0 2.08 1.08 2.08 2.48 c0 1.8 -0.96 3.64 -1.8 5.2 c0.4 0 0.8 -0.12 1.16 -0.28 c1.84 -0.68 3.36 -2.16 4.44 -3.72 l0.04 -0.04 c0.48 0 0.64 0.08 0.8 0.6 c-0.08 0.16 -0.4 0.56 -0.4 0.6 c-0.04 0.04 -0.28 0.36 -0.36 0.44 c-1.56 1.84 -3.92 3.52 -6.4 3.52 l0 0.04 c-1.2 1.6 -4.16 5.28 -6.36 5.28 c-1.76 0 -2.76 -1.12 -2.76 -2.88 z M70.048 25.8 c0 0.76 0.12 1.76 0.84 2.24 c0.12 0.04 0.28 0.16 0.44 0.16 c0.92 -1.36 2 -3.52 2 -5.2 c0 -0.72 -0.28 -1.4 -1.08 -1.4 c-1.12 0 -1.88 1.84 -2.04 2.72 c-0.12 0.48 -0.16 0.96 -0.16 1.48 z M66.208 32 c0 0.32 0.08 0.64 0.44 0.64 c0.8 0 1.6 -0.72 2.08 -1.24 c0.12 -0.08 0.56 -0.52 0.64 -0.64 c0.12 -0.16 0.8 -0.96 0.96 -1.12 c0.04 -0.08 0.32 -0.44 0.36 -0.48 c0 -0.04 -0.52 -0.28 -0.6 -0.32 c-0.88 -0.56 -1.32 -1.48 -1.52 -2.52 l0 0.04 c-0.04 0 -0.32 0.48 -0.44 0.68 c-0.68 1.16 -1.92 3.56 -1.92 4.96 z"></path></g><g id="SvgjsG2935" featureKey="sloganFeature-0" transform="matrix(1.283342721310512,0,0,1.283342721310512,28.536200082979292,271.45529031997347)" fill="#32612d"><path d="M3.7305 20.18555 c-1.0352 0 -2.2266 -0.27344 -3.3691 -0.88867 l0.99609 -1.9434 c0.67383 0.45898 1.3867 0.70313 2.1289 0.70313 c1.3379 0 2.0605 -0.87891 2.0605 -2.5977 l0 -9.3848 l2.3438 0 l0 9.8145 c0 2.7441 -1.6797 4.2969 -4.1602 4.2969 z M24.15476015625 8.154 l-5.4102 0 l0 3.8574 l4.7852 0 l0 2.0605 l-4.7852 0 l0 3.8379 l5.4102 0 l0 2.0898 l-7.7734 0 l0 -13.926 l7.7734 0 l0 2.0801 z M32.0595828125 20 l0 -13.926 l4.7656 0 c4.3555 0 6.543 2.832 6.543 6.9531 c0 4.1309 -2.1875 6.9727 -6.543 6.9727 l-4.7656 0 z M34.3935828125 17.9102 l2.334 0 c2.8516 0 4.1895 -1.8457 4.1895 -4.8828 c0 -3.0176 -1.3379 -4.873 -4.1895 -4.873 l-2.334 0 l0 9.7559 z M52.93313984375 17.9102 l7.3926 0 l0 2.0898 l-10.234 0 l0 -1.8652 l7.2461 -9.9805 l-7.2266 0 l0 -2.0801 l10.02 0 l0 1.875 z M79.60208515625 17.9102 l7.3926 0 l0 2.0898 l-10.234 0 l0 -1.8652 l7.2461 -9.9805 l-7.2266 0 l0 -2.0801 l10.02 0 l0 1.875 z M94.5869265625 20 l0 -13.926 l4.7656 0 c4.3555 0 6.543 2.832 6.543 6.9531 c0 4.1309 -2.1875 6.9727 -6.543 6.9727 l-4.7656 0 z M96.9209265625 17.9102 l2.334 0 c2.8516 0 4.1895 -1.8457 4.1895 -4.8828 c0 -3.0176 -1.3379 -4.873 -4.1895 -4.873 l-2.334 0 l0 9.7559 z M121.14408359375 20 l-3.6133 -6.2109 l-1.5039 0 l0 6.2109 l-2.334 0 l0 -13.926 l4.834 0 c3.0176 0 4.3457 1.8066 4.3457 4.043 c0 1.9434 -1.1523 3.252 -2.998 3.584 l4.0137 6.2988 l-2.7441 0 z M116.02688359375 8.047 l0 4.0137 l2.1582 0 c1.709 0 2.4414 -0.80078 2.4414 -1.9922 c0 -1.1816 -0.73242 -2.0215 -2.4414 -2.0215 l-2.1582 0 z M137.242146875 20.18555 c-4.0039 0 -7.0313 -2.7441 -7.0313 -7.1582 c0 -4.4043 3.0273 -7.1484 7.0313 -7.1484 c3.9941 0 7.0215 2.7441 7.0215 7.1484 c0 4.4141 -3.0273 7.1582 -7.0215 7.1582 z M137.242146875 18.0176 c2.6367 0 4.6973 -1.8262 4.6973 -4.9902 c0 -3.1348 -2.0605 -4.9707 -4.6973 -4.9707 s-4.6973 1.8359 -4.6973 4.9707 c0 3.1641 2.0605 4.9902 4.6973 4.9902 z M154.38521953125 20 l-3.8086 -13.926 l2.4316 0 l3.0078 11.006 l3.291 -11.006 l2.0117 0 l3.2813 11.006 l3.0273 -11.006 l2.4219 0 l-3.8086 13.926 l-2.9102 0 l-3.0176 -9.6484 l-3.0176 9.6484 l-2.9102 0 z M183.3837484375 20.18555 c-4.0039 0 -7.0313 -2.7441 -7.0313 -7.1582 c0 -4.4043 3.0273 -7.1484 7.0313 -7.1484 c3.9941 0 7.0215 2.7441 7.0215 7.1484 c0 4.4141 -3.0273 7.1582 -7.0215 7.1582 z M183.3837484375 18.0176 c2.6367 0 4.6973 -1.8262 4.6973 -4.9902 c0 -3.1348 -2.0605 -4.9707 -4.6973 -4.9707 s-4.6973 1.8359 -4.6973 4.9707 c0 3.1641 2.0605 4.9902 4.6973 4.9902 z"></path></g>
			</g>
		</svg>
	